inDegrees=yes
name=ik_S54_A07_T01
DataType=double
version=3
OpenSimVersion=4.3-2021-08-27-4bc7ad9
endheader
time	pelvis_tilt	pelvis_list	pelvis_rotation	pelvis_tx	pelvis_ty	pelvis_tz	hip_flexion_r	hip_adduction_r	hip_rotation_r	knee_angle_r	knee_angle_r_beta	ankle_angle_r	subtalar_angle_r	mtp_angle_r	hip_flexion_l	hip_adduction_l	hip_rotation_l	knee_angle_l	knee_angle_l_beta	ankle_angle_l	subtalar_angle_l	mtp_angle_l	lumbar_extension	lumbar_bending	lumbar_rotation	arm_flex_r	arm_add_r	arm_rot_r	elbow_flex_r	pro_sup_r	wrist_flex_r	wrist_dev_r	arm_flex_l	arm_add_l	arm_rot_l	elbow_flex_l	pro_sup_l	wrist_flex_l	wrist_dev_l
23.53999999999959	-1.722951345683312	-1.55907310028188	11.23255544035875	0	0.9399999999999999	0	43.5709351522238	-10.18253264313763	-10.36799266448879	48.34945375988675	0.8438571596507757	0	0	0	43.5709351522238	-10.18253264313763	-10.36799266448879	48.34945375988675	0.8438571596507757	0	0	0	-1.693228623281399	-1.259554998627754	5.327412333832786	82.76325927792877	-4.105975475442111	7.09552950101308	107.1395983899446	47.88927332240157	0	0	26.46620139795233	-14.75697594243084	1.700150139722275	30.42205165676003	121.3860688425541	0	0
23.55999999999959	-1.870905397539501	-1.567869208109356	11.29166852709616	0	0.9399999999999999	0	43.5716429677199	-10.18221706165858	-10.36758448549465	48.35168176074964	0.8438960456015704	0	0	0	43.5716429677199	-10.18221706165858	-10.36758448549465	48.35168176074964	0.8438960456015704	0	0	0	-1.840648487401933	-1.238938293309936	5.305073902442118	81.27856760741781	-4.286365012981681	7.143478626945551	106.8918589600015	45.96740305624417	0	0	26.56232185030738	-14.64538963456741	1.60429923311177	30.67104217836108	121.3981551105706	0	0
23.57999999999959	-1.927428968882626	-1.565951750833975	11.43834681613089	0	0.9399999999999999	0	43.57212110280368	-10.18200650179032	-10.36731094057715	48.35320235298196	0.8439225849426046	0	0	0	43.57212110280368	-10.18200650179032	-10.36731094057715	48.35320235298196	0.8439225849426046	0	0	0	-1.89903472262661	-1.221483957886391	5.158902359361575	81.34431843605219	-4.180269584234868	7.49229684503521	105.1476072305065	43.71134582785974	0	0	26.48254766024873	-14.5781823532458	1.453722815371638	30.87662064173321	121.4049375629356	0	0
23.59999999999959	-2.109212855645359	-1.594405591573152	11.32471297571553	0	0.9399999999999999	0	43.57309117775289	-10.18157470508085	-10.36675192365793	48.35625490528896	0.843975862030951	0	0	0	43.57309117775289	-10.18157470508085	-10.36675192365793	48.35625490528896	0.843975862030951	0	0	0	-2.082106870247185	-1.210136948589574	5.186672937473252	78.11272097280198	-4.473171455941473	7.137718514223613	108.2213975441328	44.63149663095904	0	0	26.64902436013548	-14.51899313436984	1.228421971216625	31.12453019017761	121.4491920462147	0	0
23.61999999999959	-2.223572885909888	-1.606947638261404	11.33844988689975	0	0.9399999999999999	0	43.57407619081304	-10.18113651979134	-10.36618436710743	48.35935205572505	0.8440299175034905	0	0	0	43.57407619081304	-10.18113651979134	-10.36618436710743	48.35935205572505	0.8440299175034905	0	0	0	-2.197553651894541	-1.199010798549779	5.159996097742092	76.60708844605247	-4.585042155805391	7.189158364585362	107.8098341623238	43.02459381514528	0	0	26.67971615683071	-14.4627682215371	1.128887776661741	31.34737096743354	121.4747668780391	0	0
23.63999999999958	-2.324327520791088	-1.607806291758971	11.39285300885083	0	0.9399999999999999	0	43.57450404029328	-10.18094772419375	-10.36593910875868	48.36070604318251	0.8440535490426538	0	0	0	43.57450404029328	-10.18094772419375	-10.36593910875868	48.36070604318251	0.8440535490426538	0	0	0	-2.297346058629947	-1.179249304520095	5.121603077225828	75.0192310006928	-4.553785792095677	7.375989194841173	106.0125091834907	41.0519248169202	0	0	26.6845397214881	-14.39049846285674	1.050931118843337	31.4809142808914	121.4846394851992	0	0
23.65999999999958	-2.396446400987716	-1.604468849653566	11.41369978605702	0	0.9399999999999999	0	43.57493103032643	-10.18075927735988	-10.36569429000263	48.36205638896675	0.8440771170226292	0	0	0	43.57493103032643	-10.18075927735988	-10.36569429000263	48.36205638896675	0.8440771170226292	0	0	0	-2.368056539305977	-1.160798161320933	5.098010272969845	73.36098197602847	-4.485849441478267	7.538775880235801	105.1590147484811	40.26907498830357	0	0	26.66940778645393	-14.3541110325614	0.997931159101049	31.65421842039014	121.4814017025947	0	0
23.67999999999958	-2.517310985305466	-1.617495123679506	11.38897551448023	0	0.9399999999999999	0	43.57537868761788	-10.1805616493744	-10.36543753679224	48.36347080622614	0.8441018032608026	0	0	0	43.57537868761788	-10.1805616493744	-10.36543753679224	48.36347080622614	0.8441018032608026	0	0	0	-2.49017739943855	-1.147729964418896	5.063768102697954	71.86759756459337	-4.336517300174592	7.783937212231596	104.0817507271813	39.81885004028668	0	0	26.69507360946043	-14.33607675870916	0.9069696871212756	31.86012440039336	121.471393439747	0	0
23.69999999999958	-2.728552646397535	-1.607043767084857	11.32275246014075	0	0.9399999999999999	0	43.57620748864444	-10.18019453691298	-10.36496104075595	48.36607903224257	0.8441473253924254	0	0	0	43.57620748864444	-10.18019453691298	-10.36496104075595	48.36607903224257	0.8441473253924254	0	0	0	-2.696924867110508	-1.092417273991	5.034279501708252	70.75615058800101	-4.105554799468901	8.034616075051437	102.5216308569772	40.06545135023558	0	0	26.86277560929697	-14.25546738057346	0.7185120847566318	32.13321888752067	121.4792075751233	0	0
